<?xml version="1.0" encoding="UTF-8"?><svg id="Livello_1" xmlns="http://www.w3.org/2000/svg" viewBox="0 0 476.38 420.26"><defs><style>.cls-1{fill:#004b79;}.cls-2{fill:#5b7e95;}.cls-3{fill:#3a8eb4;}.cls-4{fill:#d37237;}.cls-5{fill:#8f8e4e;}.cls-6{fill:#e4a547;}.cls-7{fill:#7cc090;}.cls-8{fill:#3fb1bf;}.cls-9{fill:#9468a1;}.cls-10{fill:#3a3d6a;}.cls-11{fill:#8bcdcd;}.cls-12{fill:#0081ac;}.cls-13{fill:#e24529;}.cls-14{fill:#2f6382;}.cls-15{fill:#f19f39;}.cls-16{fill:#045984;}.cls-17{fill:#ab4a88;}.cls-18{fill:#685987;}.cls-19{fill:#1a6d79;}.cls-20{fill:#545396;}.cls-21{fill:#00a9c6;}.cls-22{fill:#da502f;}.cls-23{fill:#333;}.cls-24{fill:#ebac7c;}.cls-25{fill:#577c44;}.cls-26{fill:#6fc8e4;}.cls-27{fill:#3a3869;}.cls-28{fill:#b3c041;}.cls-29{fill:#596ba0;}.cls-30{fill:#bb5291;}.cls-31{fill:#59317d;}.cls-32{fill:#3f6eac;}.cls-33{fill:#482b53;}.cls-34{fill:#a75d75;}.cls-35{fill:#b9984e;}.cls-36{fill:#006d7e;}.cls-37{fill:#8a5775;}.cls-38{fill:#f1cc40;}.cls-39{fill:#55347f;}.cls-40{fill:#647d45;}</style></defs><rect class="cls-13" x="279.52" width="32.81" height="32.81"/><rect class="cls-24" x="279.52" y="32.81" width="32.81" height="32.81"/><rect class="cls-11" x="410.76" width="32.81" height="32.81"/><rect class="cls-4" x="279.52" y="65.62" width="32.81" height="32.81"/><rect class="cls-22" x="279.52" y="98.43" width="32.81" height="32.81"/><rect class="cls-15" x="279.52" y="131.24" width="32.81" height="32.81"/><rect class="cls-6" x="312.33" y="32.81" width="32.81" height="32.81"/><rect class="cls-6" x="345.14" y="0" width="32.81" height="32.81"/><rect class="cls-35" x="345.14" y="65.62" width="32.81" height="32.81"/><rect class="cls-5" x="377.95" y="32.81" width="32.81" height="32.81"/><rect class="cls-21" x="443.57" y="32.81" width="32.81" height="32.81"/><rect class="cls-21" x="410.76" y="65.62" width="32.81" height="32.81"/><rect class="cls-36" x="443.57" y="98.43" width="32.81" height="32.81"/><rect class="cls-3" x="410.76" y="98.43" width="32.81" height="32.81"/><rect class="cls-14" x="377.95" y="98.43" width="32.81" height="32.81"/><rect class="cls-25" x="345.14" y="98.43" width="32.81" height="32.81"/><rect class="cls-28" x="312.33" y="98.43" width="32.81" height="32.81"/><rect class="cls-20" x="443.57" y="131.24" width="32.81" height="32.81"/><rect class="cls-12" x="410.76" y="131.24" width="32.81" height="32.81"/><rect class="cls-26" x="377.95" y="131.24" width="32.81" height="32.81"/><rect class="cls-19" x="345.14" y="131.24" width="32.81" height="32.81"/><rect class="cls-40" x="312.33" y="131.24" width="32.81" height="32.81"/><rect class="cls-29" x="443.57" y="164.05" width="32.81" height="32.81"/><rect class="cls-16" x="410.76" y="164.05" width="32.81" height="32.81"/><rect class="cls-8" x="377.95" y="164.05" width="32.81" height="32.81"/><polyline class="cls-20" points="459.98 229.67 443.57 229.67 443.57 196.86 476.38 196.86"/><rect class="cls-10" x="410.76" y="196.86" width="32.81" height="32.81"/><rect class="cls-26" x="377.95" y="196.86" width="32.81" height="32.81"/><polyline class="cls-31" points="444.79 262.48 443.57 262.48 443.57 229.67 459.98 229.67"/><rect class="cls-18" x="410.76" y="229.67" width="32.81" height="32.81"/><rect class="cls-32" x="377.95" y="229.67" width="32.81" height="32.81"/><polyline class="cls-33" points="413.02 295.29 410.76 295.29 410.76 262.48 444.26 262.48"/><rect class="cls-39" x="377.95" y="262.48" width="32.81" height="32.81"/><rect class="cls-1" x="345.14" y="262.48" width="32.81" height="32.81"/><polyline class="cls-17" points="377.95 328.1 377.95 295.29 413.04 295.29"/><rect class="cls-37" x="345.14" y="295.29" width="32.81" height="32.81"/><rect class="cls-27" x="312.33" y="295.29" width="32.81" height="32.81"/><rect class="cls-9" x="312.33" y="328.1" width="32.81" height="32.81"/><polyline class="cls-34" points="345.14 360.91 345.14 328.1 377.95 328.1"/><rect class="cls-1" x="279.52" y="328.1" width="32.81" height="32.81"/><rect class="cls-30" x="279.52" y="360.91" width="32.81" height="32.81"/><polyline class="cls-1" points="312.33 393.72 312.33 360.91 345.14 360.91"/><rect class="cls-38" x="279.69" y="164.05" width="32.81" height="32.81"/><rect class="cls-7" x="344" y="164.05" width="34.12" height="32.81"/><rect class="cls-2" x="312.5" y="164.05" width="32.64" height="32.81"/><path class="cls-23" d="M208.14,138.79C232.25,221.67,63.69,408.09,11.15,419.73c-52.54,11.64,99.73-172.59,61.71-239.28C33.84,111.99,29.93,53.04,82.46,41.4c52.54-11.64,103.55,21.34,125.67,97.4Z"/><rect class="cls-23" x="13.62" width="196.86" height="186.33" rx="31.16" ry="31.16"/></svg>